<svg xmlns="http://www.w3.org/2000/svg" xmlns:xlink="http://www.w3.org/1999/xlink" width="1080" zoomAndPan="magnify" viewBox="0 0 810 809.999993" height="1080" preserveAspectRatio="xMidYMid meet" version="1.0"><defs><clipPath id="4ca2032844"><path d="M 1 1 L 738.25 1 L 738.25 708 L 1 708 Z M 1 1 " clip-rule="nonzero"/></clipPath><clipPath id="ba29dd5d15"><path d="M 229.039062 261.496094 L 470 261.496094 L 470 462.503906 L 229.039062 462.503906 Z M 229.039062 261.496094 " clip-rule="nonzero"/></clipPath><clipPath id="8e5c2754ae"><path d="M 469.371094 322.300781 C 467.777344 284.882812 441.53125 261.496094 407.199219 261.496094 C 381.121094 261.496094 356.957031 277.203125 346.84375 299.46875 C 337.117188 277.203125 313.886719 261.496094 288.8125 261.496094 C 255.800781 261.496094 230.570312 284.882812 229.039062 322.300781 C 229.039062 400.019531 288.621094 438.144531 346.84375 462.503906 C 407.402344 438.144531 469.371094 400.027344 469.371094 322.300781 Z M 469.371094 322.300781 " clip-rule="nonzero"/></clipPath><clipPath id="33a1c3ce0c"><path d="M 0.0390625 0.496094 L 240.441406 0.496094 L 240.441406 201.503906 L 0.0390625 201.503906 Z M 0.0390625 0.496094 " clip-rule="nonzero"/></clipPath><clipPath id="253d2b5fe7"><path d="M 240.371094 61.300781 C 238.777344 23.882812 212.53125 0.496094 178.199219 0.496094 C 152.121094 0.496094 127.957031 16.203125 117.84375 38.46875 C 108.117188 16.203125 84.886719 0.496094 59.8125 0.496094 C 26.800781 0.496094 1.570312 23.882812 0.0390625 61.300781 C 0.0390625 139.019531 59.621094 177.144531 117.84375 201.503906 C 178.402344 177.144531 240.371094 139.027344 240.371094 61.300781 Z M 240.371094 61.300781 " clip-rule="nonzero"/></clipPath><clipPath id="84c6b5fbab"><rect x="0" width="241" y="0" height="202"/></clipPath><clipPath id="3858efde5b"><rect x="0" width="756" y="0" height="709"/></clipPath></defs><g transform="matrix(1, 0, 0, 1, 54, 43)"><g clip-path="url(#3858efde5b)"><g clip-path="url(#4ca2032844)"><path fill="#4caf88" d="M 331.945312 2.292969 C 240.660156 7.523438 162.441406 42.859375 99.511719 107.289062 C 41.234375 166.960938 9.800781 238.351562 2.074219 328.585938 C 0.820312 343.207031 0.8125 352.328125 2.042969 367.835938 C 5.925781 416.859375 16.847656 456.15625 38.757812 499.933594 C 75.949219 574.246094 147.679688 631.847656 227.785156 651.730469 C 264.734375 660.898438 314.640625 660.953125 356.265625 651.867188 C 383.375 645.953125 419.996094 631.179688 443.617188 616.628906 C 461.75 605.464844 483.921875 588.027344 498.421875 573.527344 C 537.679688 534.269531 564.230469 482.222656 564.460938 444.078125 C 564.554688 428.476562 559.441406 421.617188 547.714844 421.617188 C 542.683594 421.617188 539.710938 422.703125 533.285156 426.878906 C 524.238281 432.765625 518.511719 438.644531 500.101562 460.9375 C 473.058594 493.679688 441.570312 517.808594 407.4375 531.9375 C 391.539062 538.519531 389.859375 538.097656 398.921875 529.816406 C 407.273438 522.183594 414.875 508.859375 414.84375 501.917969 C 414.792969 491.324219 406.59375 484.660156 393.601562 484.660156 C 381.816406 484.660156 371.023438 490.339844 347.707031 508.808594 C 326.3125 525.757812 317.574219 531.644531 301.917969 539.660156 L 290.621094 545.445312 L 277.703125 540.308594 C 198.308594 508.742188 129.746094 432.265625 106.445312 349.277344 C 99 322.765625 97.695312 312.542969 97.664062 280.449219 C 97.640625 254.792969 98.042969 249.121094 100.769531 236.59375 C 109.273438 197.535156 128.265625 157.453125 152.71875 126.949219 C 175.589844 98.417969 213.90625 65.972656 247.34375 46.820312 C 280.472656 27.847656 331.722656 10.699219 373.0625 4.761719 L 385.398438 2.988281 L 376.488281 2.082031 C 365.296875 0.945312 354.53125 0.996094 331.945312 2.292969 M 396.359375 48.300781 C 334.402344 54.726562 273.894531 78.648438 232.582031 113.058594 C 191.046875 147.644531 163.703125 187.207031 150.996094 231.109375 C 144.445312 253.734375 143.105469 271.113281 147.378906 278.027344 C 154.582031 289.679688 170.164062 288.523438 184.886719 275.25 C 187.984375 272.457031 197.433594 261.535156 205.886719 250.984375 C 232.785156 217.390625 258.761719 194.664062 285.570312 181.277344 C 295.097656 176.519531 317.984375 166.695312 319.539062 166.695312 C 319.964844 166.695312 316.605469 170.492188 312.078125 175.132812 C 303.246094 184.1875 295.625 197.550781 295.625 203.984375 C 295.625 217.648438 311.292969 224.917969 329.152344 219.546875 C 337.453125 217.046875 346.839844 210.808594 367.878906 193.800781 C 384.929688 180.019531 402.675781 168.117188 413.226562 163.378906 C 418.832031 160.859375 419.402344 160.847656 426.402344 163.050781 C 459.851562 173.597656 513.050781 211.453125 541.335938 244.84375 C 613.0625 329.515625 631.574219 436.75 589.726562 525.195312 C 576.28125 553.613281 560.257812 576.140625 535 602.132812 C 514.859375 622.867188 498.710938 636.074219 475.007812 651.21875 C 436.09375 676.082031 388.511719 694.890625 347.019531 701.800781 C 321.328125 706.082031 322.6875 705.667969 330.574219 706.800781 C 339.664062 708.105469 385.917969 705.917969 404.570312 703.296875 C 451.636719 696.691406 511.46875 673.75 550.546875 647.328125 C 590.816406 620.101562 631.515625 577.265625 655.949219 536.398438 C 679.261719 497.402344 695.472656 451.3125 703.648438 400.765625 C 707.214844 378.699219 706.863281 330.617188 702.953125 305.804688 C 688.289062 212.742188 644.539062 141.550781 573.160156 94.597656 C 539.507812 72.460938 503.136719 57.9375 463.519531 50.816406 C 451.605469 48.675781 408.359375 47.054688 396.359375 48.300781 M 1000.089844 201.820312 C 967.363281 206.507812 944.828125 214.71875 920.796875 230.707031 C 898.492188 245.550781 874.015625 274.167969 863.722656 297.4375 C 853.6875 320.128906 848.640625 349.046875 849.707031 377.757812 C 850.511719 399.460938 852.875 413.15625 858.980469 431.515625 C 875.75 481.945312 917.859375 522.378906 966.445312 534.703125 C 1009.539062 545.636719 1050.496094 540.777344 1080.878906 521.121094 C 1094.773438 512.132812 1103.835938 504.054688 1112.59375 492.847656 L 1120.011719 483.363281 L 1120.390625 505.53125 C 1120.699219 523.722656 1121.167969 528.136719 1123 530.164062 C 1125.035156 532.410156 1128.203125 532.632812 1158.503906 532.632812 C 1187.503906 532.632812 1192.058594 532.34375 1194.015625 530.382812 C 1196.066406 528.335938 1196.21875 520.023438 1195.722656 436.15625 L 1195.179688 344.179688 L 1191.644531 329.789062 C 1184.785156 301.832031 1176.238281 282.753906 1162.457031 264.640625 C 1130.40625 222.511719 1082.03125 200.558594 1022.527344 201.144531 C 1012.070312 201.246094 1001.972656 201.550781 1000.089844 201.820312 M 1378.359375 201.679688 C 1377.230469 201.902344 1371.679688 202.824219 1366.023438 203.734375 C 1316.664062 211.671875 1279.1875 242.78125 1266.183594 286.617188 C 1258.558594 312.316406 1258.464844 314.023438 1258.449219 425.171875 C 1258.441406 510.40625 1258.761719 528.484375 1260.316406 530.363281 C 1261.976562 532.359375 1266.230469 532.632812 1296.082031 532.632812 C 1327.167969 532.632812 1330.152344 532.425781 1332.234375 530.125 C 1334.296875 527.84375 1334.503906 519.160156 1334.503906 433.601562 C 1334.503906 373.445312 1335.039062 335.71875 1335.992188 328.859375 C 1340.160156 298.828125 1355.410156 278.675781 1379.941406 270.789062 C 1393.25 266.507812 1414.601562 266.460938 1427.796875 270.679688 C 1445.917969 276.46875 1460.503906 288.90625 1467.644531 304.652344 C 1476.574219 324.351562 1476.203125 319.40625 1477 429.546875 C 1477.628906 516.804688 1477.996094 530.160156 1479.78125 531.289062 C 1480.929688 532.015625 1496.761719 532.597656 1515.679688 532.609375 C 1549.109375 532.632812 1549.550781 532.59375 1551.65625 529.585938 C 1553.535156 526.902344 1553.792969 515.589844 1553.800781 434.671875 C 1553.808594 378.667969 1554.359375 339.332031 1555.21875 333.902344 C 1560.671875 299.324219 1576.625 278.566406 1603.972656 270.453125 C 1622.375 264.992188 1643.902344 266.410156 1660.007812 274.136719 C 1676.496094 282.046875 1685.695312 294.015625 1692.445312 316.320312 C 1695.445312 326.234375 1695.488281 327.683594 1695.964844 427.785156 C 1696.402344 520.03125 1696.648438 529.359375 1698.703125 530.917969 C 1700.371094 532.179688 1709.867188 532.632812 1734.886719 532.632812 C 1768.390625 532.632812 1768.839844 532.59375 1770.945312 529.585938 C 1772.828125 526.898438 1773.078125 515.191406 1773.078125 430.363281 C 1773.078125 328.789062 1772.464844 315.230469 1766.875 293.195312 C 1751.3125 231.835938 1700.386719 198.390625 1627.113281 201.398438 C 1599.253906 202.542969 1578.65625 208.183594 1557.40625 220.484375 C 1547.191406 226.398438 1530.40625 241.523438 1524.328125 250.289062 C 1522.234375 253.308594 1520.144531 255.777344 1519.683594 255.769531 C 1519.21875 255.765625 1517.347656 253.566406 1515.519531 250.886719 C 1510.589844 243.644531 1498.011719 231.492188 1489.410156 225.660156 C 1463.867188 208.332031 1436.164062 200.820312 1398.917969 201.125 C 1388.742188 201.207031 1379.492188 201.457031 1378.359375 201.679688 M 1976.605469 203.035156 C 1949.734375 207.386719 1926.542969 216.273438 1905.488281 230.285156 C 1893.121094 238.515625 1871.03125 260.496094 1863.339844 272.226562 C 1850.773438 291.394531 1841.476562 315.398438 1837.414062 339.171875 C 1834.894531 353.917969 1834.753906 362.5 1834.753906 503.039062 C 1834.753906 619.542969 1835.121094 651.839844 1836.464844 653.648438 C 1837.953125 655.644531 1842.496094 656.058594 1871.074219 656.796875 C 1899.367188 657.53125 1904.347656 657.355469 1906.707031 655.554688 C 1909.378906 653.511719 1909.464844 651.433594 1910.132812 570.371094 L 1910.820312 487.28125 L 1918.496094 496.679688 C 1926.5625 506.554688 1944.253906 520.835938 1955.445312 526.507812 C 2000.707031 549.441406 2066.78125 543.882812 2111.738281 513.351562 C 2168.464844 474.828125 2194.054688 398.859375 2175.285156 324.691406 C 2167.785156 295.054688 2155.117188 272.148438 2134.902344 251.671875 C 2110.921875 227.375 2082.441406 212.035156 2047.1875 204.414062 C 2032.460938 201.234375 1992.539062 200.453125 1976.605469 203.035156 M 2362.414062 202.996094 C 2298.785156 212.484375 2248.941406 253.757812 2228.332031 314.027344 C 2215.167969 352.519531 2216.175781 402.195312 2230.878906 439.535156 C 2246.996094 480.46875 2280.773438 514.707031 2319.925781 529.808594 C 2344.347656 539.226562 2379.78125 542.746094 2404.902344 538.253906 C 2436.535156 532.597656 2463.566406 516.574219 2483.246094 491.808594 L 2491.246094 481.742188 L 2491.246094 504.917969 C 2491.246094 525.628906 2491.511719 528.335938 2493.753906 530.363281 C 2495.9375 532.339844 2500.472656 532.632812 2529.21875 532.632812 C 2556.316406 532.632812 2562.472656 532.277344 2563.828125 530.648438 C 2565.085938 529.128906 2565.332031 506.808594 2564.871094 435.734375 C 2564.308594 348.667969 2564.09375 341.988281 2561.472656 329.789062 C 2557.863281 312.980469 2554.039062 301.789062 2547.488281 288.835938 C 2523.726562 241.847656 2477.722656 210.488281 2420.664062 202.375 C 2407.707031 200.535156 2376.710938 200.863281 2362.414062 202.996094 M 2740.972656 202.335938 C 2708.546875 206.886719 2683.011719 218.636719 2663.816406 237.839844 C 2650.085938 251.570312 2642.472656 263.714844 2636.648438 281.171875 C 2628.527344 305.53125 2628.3125 309.175781 2628.304688 423.800781 C 2628.300781 522.175781 2628.441406 528.21875 2630.746094 530.308594 C 2632.847656 532.207031 2637.933594 532.546875 2666.546875 532.703125 C 2695.695312 532.863281 2700.183594 532.605469 2702.132812 530.65625 C 2704.144531 528.648438 2704.441406 518.359375 2705.105469 428.078125 C 2705.746094 340.574219 2706.128906 326.765625 2708.085938 320.175781 C 2715.007812 296.875 2721.398438 287.121094 2735.175781 278.847656 C 2747.1875 271.636719 2755.308594 269.332031 2771.523438 268.535156 C 2788.097656 267.71875 2800.324219 270.007812 2816.511719 276.960938 C 2822.734375 279.632812 2829.140625 281.820312 2830.746094 281.820312 C 2834.507812 281.820312 2837.652344 276.644531 2844.777344 258.722656 C 2852.140625 240.210938 2852.980469 234.1875 2849.082031 227.882812 C 2843.445312 218.761719 2824.773438 209.003906 2803.875 204.261719 C 2793.082031 201.808594 2753.371094 200.59375 2740.972656 202.335938 M 3007.941406 201.800781 C 2932.367188 211.050781 2875.4375 263.417969 2859.113281 338.699219 C 2857.390625 346.628906 2856.738281 355.921875 2856.742188 372.277344 C 2856.746094 391.636719 2857.25 397.058594 2860.242188 409.96875 C 2864.789062 429.605469 2870.691406 444.675781 2879.511719 459.179688 C 2915.945312 519.082031 2982.28125 548.753906 3057.554688 538.808594 C 3099.972656 533.203125 3130.652344 518.398438 3159.5625 489.585938 C 3181.875 467.347656 3194.644531 445.1875 3201.96875 415.992188 C 3206.746094 396.957031 3208.152344 359.136719 3204.796875 339.882812 C 3198.648438 304.59375 3184.492188 276.375 3160.925781 252.425781 C 3138.464844 229.597656 3109.359375 213.601562 3074.414062 204.875 C 3065.949219 202.761719 3057.671875 202.03125 3038.09375 201.675781 C 3024.148438 201.421875 3010.582031 201.476562 3007.941406 201.800781 M 1009.453125 268.195312 C 989.339844 270.953125 972 279.925781 957.628906 295.023438 C 934.972656 318.820312 924.679688 350.21875 928.597656 383.601562 C 933.496094 425.363281 957.445312 456.980469 993.195312 468.886719 C 1053.890625 489.101562 1111.265625 451.058594 1119.632812 385.058594 C 1126.277344 332.613281 1094.988281 281.980469 1048.742188 270.359375 C 1037.765625 267.601562 1020.675781 266.660156 1009.453125 268.195312 M 1993.738281 268.015625 C 1970.742188 270.554688 1948.113281 282.949219 1934.050781 300.707031 C 1924.824219 312.363281 1916.335938 330.265625 1912.816406 345.503906 C 1910.226562 356.707031 1909.878906 361.207031 1910.515625 375.421875 C 1912.382812 417.117188 1931.039062 447.90625 1964.269531 464.125 C 1978.683594 471.160156 1991.351562 474.078125 2007.441406 474.078125 C 2044.101562 474.070312 2074.378906 454.644531 2091.902344 419.890625 C 2098.980469 405.859375 2101.988281 391.21875 2102 370.78125 C 2102.011719 349.539062 2099.203125 337.226562 2090.160156 318.855469 C 2072.734375 283.464844 2034.824219 263.476562 1993.738281 268.015625 M 2379.957031 268.203125 C 2349.660156 271.476562 2321.265625 293.082031 2307.738281 323.148438 C 2300.5625 339.105469 2298.722656 348.988281 2298.738281 371.589844 C 2298.75 395.671875 2300.386719 403.203125 2309.914062 422.988281 C 2315.140625 433.828125 2318.046875 437.851562 2327.308594 447.035156 C 2345.859375 465.429688 2366.328125 473.78125 2393.253906 473.941406 C 2442.527344 474.230469 2479.035156 442.339844 2487.964844 391.203125 C 2490.484375 376.777344 2489.878906 358.375 2486.394531 343.496094 C 2485.25 338.59375 2481.164062 328.109375 2477.316406 320.195312 C 2471.351562 307.914062 2468.691406 304.183594 2459.199219 294.765625 C 2437.546875 273.277344 2412.050781 264.730469 2379.957031 268.203125 M 3006.574219 270.269531 C 2973.121094 279.023438 2948 305.542969 2937.867188 342.808594 C 2933.761719 357.90625 2933.707031 384.777344 2937.746094 399.761719 C 2949.949219 445.019531 2987.117188 474.316406 3031.929688 474.003906 C 3078.277344 473.679688 3114.847656 443.941406 3125.917969 397.578125 C 3128.421875 387.078125 3128.75 382.511719 3128.183594 366.109375 C 3127.628906 350.085938 3126.910156 345.113281 3123.839844 335.957031 C 3117.398438 316.742188 3107.363281 301.570312 3093.199219 289.613281 C 3084.066406 281.910156 3063.847656 271.730469 3053.449219 269.601562 C 3043.191406 267.503906 3015.644531 267.894531 3006.574219 270.269531 " fill-opacity="1" fill-rule="evenodd"/></g><g clip-path="url(#ba29dd5d15)"><g clip-path="url(#8e5c2754ae)"><g transform="matrix(1, 0, 0, 1, 229, 261)"><g clip-path="url(#84c6b5fbab)"><g clip-path="url(#33a1c3ce0c)"><g clip-path="url(#253d2b5fe7)"><path fill="#2f6fa3" d="M 0.0390625 0.496094 L 240.300781 0.496094 L 240.300781 201.503906 L 0.0390625 201.503906 Z M 0.0390625 0.496094 " fill-opacity="1" fill-rule="nonzero"/></g></g></g></g></g></g></g></g></svg>