<svg xmlns="http://www.w3.org/2000/svg" xmlns:xlink="http://www.w3.org/1999/xlink" width="1080" zoomAndPan="magnify" viewBox="0 0 810 187.499995" height="250" preserveAspectRatio="xMidYMid meet" version="1.0"><defs><clipPath id="c1198c8ffa"><path d="M 0.585938 0.0546875 L 740.933594 0.0546875 L 740.933594 163.539062 L 0.585938 163.539062 Z M 0.585938 0.0546875 " clip-rule="nonzero"/></clipPath><clipPath id="b86b2ae3d3"><path d="M 53.292969 60.296875 L 108.945312 60.296875 L 108.945312 106.703125 L 53.292969 106.703125 Z M 53.292969 60.296875 " clip-rule="nonzero"/></clipPath><clipPath id="2b9747e8e5"><path d="M 108.777344 74.335938 C 108.410156 65.695312 102.351562 60.296875 94.425781 60.296875 C 88.40625 60.296875 82.828125 63.921875 80.492188 69.0625 C 78.246094 63.921875 72.882812 60.296875 67.09375 60.296875 C 59.472656 60.296875 53.648438 65.695312 53.292969 74.335938 C 53.292969 92.277344 67.050781 101.078125 80.492188 106.703125 C 94.472656 101.078125 108.777344 92.28125 108.777344 74.335938 Z M 108.777344 74.335938 " clip-rule="nonzero"/></clipPath><clipPath id="9a4c319d2d"><path d="M 0.292969 0.296875 L 55.777344 0.296875 L 55.777344 46.703125 L 0.292969 46.703125 Z M 0.292969 0.296875 " clip-rule="nonzero"/></clipPath><clipPath id="4eec8def7e"><path d="M 55.777344 14.335938 C 55.410156 5.695312 49.351562 0.296875 41.425781 0.296875 C 35.40625 0.296875 29.828125 3.921875 27.492188 9.0625 C 25.246094 3.921875 19.882812 0.296875 14.09375 0.296875 C 6.472656 0.296875 0.648438 5.695312 0.292969 14.335938 C 0.292969 32.277344 14.050781 41.078125 27.492188 46.703125 C 41.472656 41.078125 55.777344 32.28125 55.777344 14.335938 Z M 55.777344 14.335938 " clip-rule="nonzero"/></clipPath><clipPath id="8a8ddeec4d"><rect x="0" width="56" y="0" height="47"/></clipPath><clipPath id="8800c9fa40"><rect x="0" width="741" y="0" height="164"/></clipPath></defs><g transform="matrix(1, 0, 0, 1, 34, 10)"><g clip-path="url(#8800c9fa40)"><g clip-path="url(#c1198c8ffa)"><path fill="#4caf88" d="M 77.050781 0.457031 C 55.976562 1.664062 37.917969 9.820312 23.390625 24.695312 C 9.9375 38.472656 2.679688 54.953125 0.898438 75.785156 C 0.609375 79.160156 0.605469 81.265625 0.890625 84.847656 C 1.785156 96.164062 4.308594 105.238281 9.367188 115.34375 C 17.953125 132.5 34.511719 145.796875 53.003906 150.386719 C 61.535156 152.503906 73.058594 152.515625 82.667969 150.417969 C 88.925781 149.054688 97.378906 145.644531 102.832031 142.285156 C 107.019531 139.707031 112.136719 135.679688 115.484375 132.332031 C 124.550781 123.269531 130.679688 111.253906 130.730469 102.449219 C 130.753906 98.847656 129.574219 97.261719 126.867188 97.261719 C 125.703125 97.261719 125.019531 97.515625 123.535156 98.476562 C 121.445312 99.835938 120.125 101.195312 115.875 106.339844 C 109.628906 113.898438 102.359375 119.46875 94.480469 122.734375 C 90.8125 124.25 90.421875 124.15625 92.515625 122.242188 C 94.441406 120.480469 96.199219 117.40625 96.191406 115.800781 C 96.179688 113.355469 94.285156 111.816406 91.285156 111.816406 C 88.566406 111.816406 86.074219 113.128906 80.691406 117.394531 C 75.75 121.304688 73.734375 122.664062 70.121094 124.515625 L 67.511719 125.851562 L 64.53125 124.664062 C 46.199219 117.378906 30.371094 99.722656 24.992188 80.5625 C 23.273438 74.441406 22.972656 72.082031 22.964844 64.671875 C 22.960938 58.75 23.050781 57.441406 23.683594 54.546875 C 25.644531 45.53125 30.03125 36.277344 35.675781 29.234375 C 40.957031 22.648438 49.800781 15.15625 57.519531 10.738281 C 65.167969 6.355469 77 2.398438 86.542969 1.027344 L 89.390625 0.617188 L 87.335938 0.40625 C 84.753906 0.144531 82.265625 0.15625 77.050781 0.457031 M 91.921875 11.078125 C 77.621094 12.5625 63.652344 18.085938 54.113281 26.027344 C 44.523438 34.011719 38.210938 43.148438 35.277344 53.28125 C 33.765625 58.503906 33.457031 62.515625 34.441406 64.113281 C 36.105469 66.804688 39.703125 66.539062 43.101562 63.472656 C 43.816406 62.828125 46 60.304688 47.949219 57.871094 C 54.160156 50.113281 60.15625 44.867188 66.347656 41.777344 C 68.546875 40.679688 73.828125 38.410156 74.1875 38.410156 C 74.285156 38.410156 73.511719 39.289062 72.464844 40.359375 C 70.425781 42.449219 68.667969 45.535156 68.667969 47.019531 C 68.667969 50.175781 72.285156 51.851562 76.40625 50.613281 C 78.324219 50.035156 80.492188 48.59375 85.347656 44.667969 C 89.285156 41.488281 93.382812 38.738281 95.816406 37.644531 C 97.113281 37.0625 97.242188 37.0625 98.859375 37.570312 C 106.582031 40.003906 118.863281 48.746094 125.394531 56.453125 C 141.953125 76 146.226562 100.757812 136.566406 121.175781 C 133.460938 127.734375 129.761719 132.9375 123.929688 138.9375 C 119.28125 143.722656 115.554688 146.773438 110.082031 150.269531 C 101.097656 156.011719 90.113281 160.351562 80.53125 161.949219 C 74.601562 162.9375 74.914062 162.839844 76.734375 163.101562 C 78.835938 163.402344 89.511719 162.898438 93.820312 162.292969 C 104.683594 160.769531 118.5 155.472656 127.519531 149.371094 C 136.816406 143.085938 146.210938 133.195312 151.851562 123.761719 C 157.234375 114.757812 160.976562 104.117188 162.863281 92.449219 C 163.6875 87.355469 163.609375 76.253906 162.703125 70.527344 C 159.320312 49.042969 149.21875 32.605469 132.738281 21.765625 C 124.972656 16.65625 116.574219 13.304688 107.429688 11.660156 C 104.679688 11.164062 94.695312 10.789062 91.921875 11.078125 M 231.300781 46.519531 C 223.746094 47.601562 218.542969 49.496094 212.996094 53.1875 C 207.847656 56.617188 202.195312 63.222656 199.820312 68.59375 C 197.503906 73.832031 196.339844 80.511719 196.585938 87.136719 C 196.769531 92.148438 197.316406 95.308594 198.726562 99.546875 C 202.597656 111.191406 212.320312 120.527344 223.535156 123.371094 C 233.484375 125.894531 242.941406 124.773438 249.953125 120.234375 C 253.160156 118.160156 255.253906 116.292969 257.277344 113.707031 L 258.988281 111.519531 L 259.074219 116.636719 C 259.148438 120.835938 259.253906 121.855469 259.679688 122.324219 C 260.148438 122.839844 260.878906 122.890625 267.875 122.890625 C 274.570312 122.890625 275.621094 122.824219 276.074219 122.375 C 276.546875 121.902344 276.582031 119.980469 276.46875 100.621094 L 276.339844 79.386719 L 275.527344 76.0625 C 273.941406 69.609375 271.96875 65.203125 268.789062 61.023438 C 261.386719 51.296875 250.21875 46.230469 236.484375 46.363281 C 234.070312 46.386719 231.738281 46.457031 231.300781 46.519531 M 318.632812 46.488281 C 318.371094 46.539062 317.089844 46.753906 315.785156 46.960938 C 304.386719 48.792969 295.738281 55.976562 292.734375 66.097656 C 290.972656 72.03125 290.953125 72.421875 290.949219 98.085938 C 290.945312 117.761719 291.019531 121.933594 291.378906 122.367188 C 291.761719 122.828125 292.746094 122.890625 299.636719 122.890625 C 306.8125 122.890625 307.503906 122.84375 307.984375 122.3125 C 308.460938 121.789062 308.507812 119.78125 308.507812 100.03125 C 308.507812 86.140625 308.628906 77.433594 308.851562 75.847656 C 309.8125 68.914062 313.332031 64.261719 318.996094 62.441406 C 322.070312 61.453125 327 61.441406 330.046875 62.417969 C 334.230469 63.753906 337.597656 66.625 339.246094 70.261719 C 341.304688 74.808594 341.21875 73.667969 341.402344 99.09375 C 341.550781 119.238281 341.632812 122.320312 342.046875 122.582031 C 342.3125 122.75 345.96875 122.886719 350.332031 122.886719 C 358.050781 122.890625 358.152344 122.882812 358.640625 122.1875 C 359.074219 121.570312 359.132812 118.957031 359.136719 100.277344 C 359.136719 87.347656 359.261719 78.265625 359.460938 77.011719 C 360.722656 69.03125 364.402344 64.238281 370.71875 62.363281 C 374.964844 61.105469 379.9375 61.429688 383.652344 63.214844 C 387.460938 65.042969 389.585938 67.804688 391.144531 72.953125 C 391.835938 75.242188 391.84375 75.578125 391.957031 98.6875 C 392.054688 119.984375 392.113281 122.136719 392.585938 122.496094 C 392.972656 122.789062 395.164062 122.890625 400.941406 122.890625 C 408.675781 122.890625 408.777344 122.882812 409.265625 122.1875 C 409.699219 121.570312 409.757812 118.867188 409.757812 99.28125 C 409.757812 75.832031 409.617188 72.703125 408.324219 67.613281 C 404.734375 53.449219 392.976562 45.726562 376.058594 46.421875 C 369.628906 46.6875 364.875 47.988281 359.964844 50.828125 C 357.609375 52.195312 353.734375 55.6875 352.332031 57.710938 C 351.847656 58.40625 351.363281 58.976562 351.257812 58.976562 C 351.152344 58.972656 350.71875 58.464844 350.296875 57.847656 C 349.160156 56.175781 346.253906 53.371094 344.269531 52.023438 C 338.371094 48.023438 331.976562 46.289062 323.378906 46.359375 C 321.027344 46.378906 318.894531 46.4375 318.632812 46.488281 M 456.746094 46.800781 C 450.542969 47.804688 445.1875 49.855469 440.328125 53.089844 C 437.472656 54.992188 432.371094 60.066406 430.597656 62.773438 C 427.695312 67.199219 425.546875 72.742188 424.609375 78.230469 C 424.027344 81.632812 423.996094 83.617188 423.996094 116.058594 C 423.996094 142.957031 424.082031 150.414062 424.390625 150.832031 C 424.734375 151.292969 425.785156 151.386719 432.382812 151.558594 C 438.914062 151.726562 440.0625 151.6875 440.609375 151.269531 C 441.226562 150.800781 441.246094 150.320312 441.398438 131.605469 L 441.558594 112.421875 L 443.328125 114.59375 C 445.191406 116.871094 449.277344 120.167969 451.859375 121.480469 C 462.308594 126.773438 477.5625 125.488281 487.941406 118.441406 C 501.039062 109.546875 506.945312 92.007812 502.613281 74.886719 C 500.882812 68.042969 497.957031 62.757812 493.289062 58.027344 C 487.753906 52.421875 481.179688 48.878906 473.039062 47.121094 C 469.640625 46.382812 460.421875 46.203125 456.746094 46.800781 M 545.8125 46.792969 C 531.125 48.980469 519.617188 58.511719 514.859375 72.425781 C 511.820312 81.3125 512.054688 92.78125 515.449219 101.398438 C 519.167969 110.851562 526.964844 118.753906 536.003906 122.242188 C 541.644531 124.414062 549.824219 125.226562 555.625 124.191406 C 562.925781 122.886719 569.167969 119.183594 573.710938 113.46875 L 575.558594 111.144531 L 575.558594 116.496094 C 575.558594 121.277344 575.617188 121.902344 576.136719 122.367188 C 576.640625 122.824219 577.6875 122.890625 584.324219 122.890625 C 590.578125 122.890625 592 122.8125 592.3125 122.433594 C 592.605469 122.082031 592.660156 116.929688 592.554688 100.523438 C 592.425781 80.421875 592.375 78.878906 591.769531 76.0625 C 590.9375 72.183594 590.054688 69.597656 588.542969 66.609375 C 583.054688 55.761719 572.433594 48.519531 559.261719 46.648438 C 556.269531 46.222656 549.113281 46.300781 545.8125 46.792969 M 633.210938 46.640625 C 625.722656 47.691406 619.828125 50.402344 615.398438 54.835938 C 612.226562 58.003906 610.46875 60.808594 609.125 64.839844 C 607.25 70.460938 607.199219 71.304688 607.199219 97.769531 C 607.199219 120.480469 607.230469 121.875 607.761719 122.355469 C 608.246094 122.792969 609.421875 122.875 616.027344 122.910156 C 622.757812 122.945312 623.792969 122.886719 624.242188 122.4375 C 624.707031 121.972656 624.777344 119.597656 624.929688 98.753906 C 625.078125 78.554688 625.164062 75.367188 625.617188 73.84375 C 627.214844 68.464844 628.691406 66.210938 631.871094 64.304688 C 634.644531 62.636719 636.519531 62.105469 640.261719 61.921875 C 644.089844 61.734375 646.914062 62.261719 650.648438 63.867188 C 652.085938 64.484375 653.566406 64.988281 653.933594 64.988281 C 654.804688 64.988281 655.53125 63.792969 657.175781 59.65625 C 658.875 55.382812 659.066406 53.992188 658.167969 52.535156 C 656.867188 50.429688 652.554688 48.179688 647.730469 47.082031 C 645.238281 46.519531 636.070312 46.238281 633.210938 46.640625 M 694.84375 46.515625 C 677.394531 48.652344 664.253906 60.742188 660.484375 78.121094 C 660.085938 79.949219 659.9375 82.097656 659.9375 85.871094 C 659.9375 90.34375 660.054688 91.59375 660.746094 94.574219 C 661.792969 99.109375 663.15625 102.585938 665.195312 105.933594 C 673.605469 119.765625 688.917969 126.613281 706.296875 124.320312 C 716.089844 123.023438 723.171875 119.605469 729.847656 112.953125 C 734.996094 107.820312 737.945312 102.703125 739.636719 95.964844 C 740.738281 91.570312 741.066406 82.839844 740.289062 78.394531 C 738.871094 70.246094 735.601562 63.730469 730.160156 58.203125 C 724.976562 52.933594 718.257812 49.238281 710.1875 47.226562 C 708.234375 46.738281 706.324219 46.570312 701.804688 46.488281 C 698.585938 46.429688 695.453125 46.441406 694.84375 46.515625 M 233.464844 61.84375 C 228.820312 62.480469 224.820312 64.550781 221.5 68.039062 C 216.269531 73.53125 213.894531 80.78125 214.796875 88.488281 C 215.929688 98.128906 221.457031 105.425781 229.710938 108.175781 C 243.722656 112.84375 256.96875 104.058594 258.902344 88.824219 C 260.433594 76.714844 253.210938 65.027344 242.535156 62.34375 C 240 61.707031 236.054688 61.488281 233.464844 61.84375 M 460.699219 61.800781 C 455.390625 62.386719 450.167969 65.25 446.921875 69.351562 C 444.789062 72.039062 442.832031 76.171875 442.019531 79.691406 C 441.421875 82.277344 441.339844 83.316406 441.488281 86.597656 C 441.917969 96.226562 446.226562 103.332031 453.898438 107.078125 C 457.226562 108.699219 460.148438 109.375 463.863281 109.375 C 472.328125 109.371094 479.316406 104.886719 483.363281 96.863281 C 484.996094 93.625 485.691406 90.246094 485.695312 85.527344 C 485.695312 80.625 485.046875 77.78125 482.960938 73.539062 C 478.9375 65.367188 470.1875 60.753906 460.699219 61.800781 M 549.863281 61.84375 C 542.871094 62.601562 536.3125 67.589844 533.191406 74.53125 C 531.535156 78.214844 531.109375 80.496094 531.113281 85.714844 C 531.117188 91.273438 531.496094 93.011719 533.695312 97.578125 C 534.898438 100.082031 535.570312 101.011719 537.710938 103.132812 C 541.992188 107.378906 546.71875 109.304688 552.933594 109.34375 C 564.308594 109.410156 572.738281 102.046875 574.800781 90.242188 C 575.378906 86.910156 575.242188 82.664062 574.4375 79.226562 C 574.171875 78.097656 573.230469 75.675781 572.339844 73.847656 C 570.964844 71.015625 570.351562 70.152344 568.160156 67.976562 C 563.160156 63.015625 557.273438 61.042969 549.863281 61.84375 M 694.527344 62.320312 C 686.804688 64.34375 681.003906 70.464844 678.664062 79.070312 C 677.71875 82.554688 677.703125 88.757812 678.636719 92.21875 C 681.453125 102.667969 690.035156 109.429688 700.382812 109.359375 C 711.082031 109.28125 719.523438 102.417969 722.078125 91.714844 C 722.65625 89.289062 722.734375 88.234375 722.601562 84.449219 C 722.472656 80.75 722.308594 79.601562 721.601562 77.488281 C 720.113281 73.050781 717.796875 69.546875 714.527344 66.789062 C 712.417969 65.011719 707.75 62.660156 705.347656 62.167969 C 702.980469 61.683594 696.621094 61.773438 694.527344 62.320312 " fill-opacity="1" fill-rule="evenodd"/></g><g clip-path="url(#b86b2ae3d3)"><g clip-path="url(#2b9747e8e5)"><g transform="matrix(1, 0, 0, 1, 53, 60)"><g clip-path="url(#8a8ddeec4d)"><g clip-path="url(#9a4c319d2d)"><g clip-path="url(#4eec8def7e)"><path fill="#2f6fa3" d="M 0.292969 0.296875 L 55.761719 0.296875 L 55.761719 46.703125 L 0.292969 46.703125 Z M 0.292969 0.296875 " fill-opacity="1" fill-rule="nonzero"/></g></g></g></g></g></g></g></g></svg>